<?xml version="1.0" encoding="UTF-8" standalone="no"?>
<!-- Created with Inkscape (http://www.inkscape.org/) -->

<svg
   xmlns:dc="http://purl.org/dc/elements/1.1/"
   xmlns:cc="http://creativecommons.org/ns#"
   xmlns:rdf="http://www.w3.org/1999/02/22-rdf-syntax-ns#"
   xmlns:svg="http://www.w3.org/2000/svg"
   xmlns="http://www.w3.org/2000/svg"
   xmlns:sodipodi="http://sodipodi.sourceforge.net/DTD/sodipodi-0.dtd"
   xmlns:inkscape="http://www.inkscape.org/namespaces/inkscape"
   width="210mm"
   height="297mm"
   id="svg2"
   version="1.1"
   inkscape:version="0.48.3.1 r9886"
   sodipodi:docname="corner.svg"
   inkscape:export-filename="/home/felipe/Dropbox/projetos/bricolabs/13_pixelache/expo/corner.png"
   inkscape:export-xdpi="90"
   inkscape:export-ydpi="90">
  <defs
     id="defs4" />
  <sodipodi:namedview
     id="base"
     pagecolor="#ffffff"
     bordercolor="#666666"
     borderopacity="1.0"
     inkscape:pageopacity="0.0"
     inkscape:pageshadow="2"
     inkscape:zoom="1.589484"
     inkscape:cx="382.35281"
     inkscape:cy="479.18243"
     inkscape:document-units="px"
     inkscape:current-layer="layer1"
     showgrid="false"
     showguides="true"
     inkscape:guide-bbox="true"
     inkscape:window-width="1366"
     inkscape:window-height="712"
     inkscape:window-x="0"
     inkscape:window-y="25"
     inkscape:window-maximized="1">
    <inkscape:grid
       type="xygrid"
       id="grid2985" />
  </sodipodi:namedview>
  <metadata
     id="metadata7">
    <rdf:RDF>
      <cc:Work
         rdf:about="">
        <dc:format>image/svg+xml</dc:format>
        <dc:type
           rdf:resource="http://purl.org/dc/dcmitype/StillImage" />
        <dc:title></dc:title>
      </cc:Work>
    </rdf:RDF>
  </metadata>
  <g
     inkscape:label="Camada 1"
     inkscape:groupmode="layer"
     id="layer1">
    <g
       id="g3039"
       transform="translate(104,-100)">
      <path
         sodipodi:nodetypes="ccccc"
         inkscape:connector-curvature="0"
         id="path3001"
         d="m 65.714286,552.84175 174.290814,0 0,63.63961 85.35789,0 0,130.52368 199.63701,0 0,-104.71558"
         style="fill:none;stroke:#000000;stroke-width:1px;stroke-linecap:butt;stroke-linejoin:miter;stroke-opacity:1" />
      <text
         sodipodi:linespacing="125%"
         id="text3005"
         y="585.8172"
         x="209.01393"
         style="font-size:12px;font-style:normal;font-weight:normal;line-height:125%;letter-spacing:0px;word-spacing:0px;fill:#000000;fill-opacity:1;stroke:none;font-family:Sans"
         xml:space="preserve"><tspan
           y="585.8172"
           x="209.01393"
           id="tspan3007"
           sodipodi:role="line">6.5</tspan></text>
      <text
         xml:space="preserve"
         style="font-size:12px;font-style:normal;font-weight:normal;line-height:125%;letter-spacing:0px;word-spacing:0px;fill:#000000;fill-opacity:1;stroke:none;font-family:Sans"
         x="267.01392"
         y="635.8172"
         id="text3009"
         sodipodi:linespacing="125%"><tspan
           id="tspan3013"
           sodipodi:role="line"
           x="267.01392"
           y="635.8172">8.5</tspan></text>
      <text
         sodipodi:linespacing="125%"
         id="text3017"
         y="675.8172"
         x="299.01392"
         style="font-size:12px;font-style:normal;font-weight:normal;line-height:125%;letter-spacing:0px;word-spacing:0px;fill:#000000;fill-opacity:1;stroke:none;font-family:Sans"
         xml:space="preserve"><tspan
           y="675.8172"
           x="299.01392"
           sodipodi:role="line"
           id="tspan3019">13</tspan></text>
      <text
         xml:space="preserve"
         style="font-size:12px;font-style:normal;font-weight:normal;line-height:125%;letter-spacing:0px;word-spacing:0px;fill:#000000;fill-opacity:1;stroke:none;font-family:Sans"
         x="383.01392"
         y="767.8172"
         id="text3021"
         sodipodi:linespacing="125%"><tspan
           id="tspan3023"
           sodipodi:role="line"
           x="383.01392"
           y="767.8172">20</tspan></text>
      <path
         sodipodi:nodetypes="cssc"
         inkscape:connector-curvature="0"
         id="path3025"
         d="m 553.86446,824.88214 c 0,0 -265.52019,0 -323.3412,0 -212.263995,0 -221.206307,-134.41042 -221.206307,-185.89046 0,-51.48003 1.43771,-126.79951 1.43771,-126.79951"
         style="fill:none;stroke:#000000;stroke-width:1px;stroke-linecap:butt;stroke-linejoin:miter;stroke-opacity:1" />
      <path
         sodipodi:nodetypes="csccccccsssscsccssccscccccc"
         inkscape:connector-curvature="0"
         id="path3031"
         d="m 510.54967,638.28975 c 1.4946,-1.74369 -0.35556,0.42668 0.74084,-0.889 0.14575,-0.1749 0.27667,-0.36474 0.4445,-0.51859 0.25888,-0.2373 1.14346,-0.66843 1.3335,-0.74083 0.21276,-0.0811 0.44527,-0.0954 0.66675,-0.14817 0.96046,-0.22868 0.766,-0.22232 1.70393,-0.37042 0.19665,-0.031 0.3938,-0.0835 0.59266,-0.0741 0.32444,0.0154 0.64352,0.0901 0.96309,0.14817 0.78016,0.14184 1.04084,0.2461 1.85209,0.66675 0.28584,0.14821 0.57427,0.30467 0.81492,0.51858 0.59573,0.52954 1.38767,1.49287 1.92617,2.14843 0.32314,0.39339 0.61908,0.81006 0.96309,1.18534 0.20093,0.2192 0.44672,0.39264 0.66675,0.59266 0.32327,0.29389 0.64737,0.58702 0.96309,0.88901 0.25237,0.24139 0.47254,0.51726 0.74083,0.74083 2.42684,1.84895 3.23024,1.98477 5.11178,0.29632 0.77591,-0.72742 0.11819,-0.22411 1.18534,-1.03717 0.26717,-0.20356 0.54262,-0.39602 0.81491,-0.59267 0.17222,-0.12438 0.35372,-0.23646 0.51859,-0.37042 0.23079,-0.18751 0.44098,-0.39915 0.66675,-0.59267 0.42975,-0.36835 0.34367,-0.22545 0.74084,-0.66675 0.32146,-0.35718 0.43452,-0.5727 0.66675,-1.03717 0.0595,-0.11894 0.0958,-0.24819 0.14817,-0.37042 0.0958,-0.22355 0.206,-0.44093 0.29633,-0.66675 0.058,-0.14501 0.10224,-0.29523 0.14817,-0.4445 0.0529,-0.17183 0.079,-0.35264 0.14817,-0.51859 0.67245,-1.61389 -0.22445,0.96967 0.37041,-0.81492"
         style="fill:none;stroke:#000000;stroke-width:1px;stroke-linecap:butt;stroke-linejoin:miter;stroke-opacity:1" />
      <path
         sodipodi:nodetypes="csccccccsssscssccsccscccccc"
         style="fill:none;stroke:#000000;stroke-width:1px;stroke-linecap:butt;stroke-linejoin:miter;stroke-opacity:1"
         d="m 67.314179,540.92424 c 1.74369,1.4946 -0.42668,-0.35556 0.889,0.74084 0.1749,0.14575 0.36474,0.27667 0.51859,0.4445 0.2373,0.25888 0.66843,1.14346 0.74083,1.3335 0.0811,0.21276 0.0954,0.44527 0.14817,0.66675 0.22868,0.96046 0.22232,0.766 0.37042,1.70393 0.031,0.19665 0.0835,0.3938 0.0741,0.59266 -0.0154,0.32444 -0.0901,0.64352 -0.14817,0.96309 -0.14184,0.78016 -0.2461,1.04084 -0.66675,1.85209 -0.14821,0.28584 -0.30467,0.57427 -0.51858,0.81492 -0.52954,0.59573 -1.49287,1.38767 -2.14843,1.92617 -0.39339,0.32314 -0.81006,0.61908 -1.18534,0.96309 -0.2192,0.20093 -0.39264,0.44672 -0.59266,0.66675 -0.29389,0.32327 -0.58702,0.64737 -0.88901,0.96309 -0.24139,0.25237 -0.51726,0.47254 -0.74083,0.74083 -0.27199,0.32639 -0.48592,0.69728 -0.74084,1.03717 -2.261662,2.27731 0.31994,3.73533 1.48169,5.25995 0.20356,0.26717 0.39602,0.54262 0.59267,0.81491 0.12438,0.17222 0.23646,0.35372 0.37042,0.51859 0.18751,0.23079 0.39915,0.44098 0.59267,0.66675 0.36835,0.42975 0.22545,0.34367 0.66675,0.74084 0.35718,0.32146 0.5727,0.43452 1.03717,0.66675 0.11894,0.0595 0.24819,0.0958 0.37042,0.14817 0.22355,0.0958 0.44093,0.206 0.66675,0.29633 0.14501,0.058 0.29523,0.10224 0.4445,0.14817 0.17183,0.0529 0.35264,0.079 0.51859,0.14817 1.61389,0.67245 -0.96967,-0.22445 0.81492,0.37041"
         id="path3033"
         inkscape:connector-curvature="0" />
      <path
         style="fill:none;stroke:#000000;stroke-width:1px;stroke-linecap:butt;stroke-linejoin:miter;stroke-opacity:1"
         d="m -0.19979049,510.01577 c 1.49459999,-1.74369 -0.35556,0.42668 0.74084,-0.889 0.14575,-0.1749 0.27667,-0.36474 0.4445,-0.51859 0.25887999,-0.2373 1.14345999,-0.66843 1.33349999,-0.74083 0.21276,-0.0811 0.44527,-0.0954 0.66675,-0.14817 0.96046,-0.22868 0.766,-0.22232 1.70393,-0.37042 0.19665,-0.031 0.3938,-0.0835 0.59266,-0.0741 0.32444,0.0154 0.64352,0.0901 0.96309,0.14817 0.78016,0.14184 1.04084,0.2461 1.85209,0.66675 0.28584,0.14821 0.57427,0.30467 0.81492,0.51858 0.59573,0.52954 1.3876705,1.49287 1.9261705,2.14843 0.32314,0.39339 0.61908,0.81006 0.96309,1.18534 0.20093,0.2192 0.44672,0.39264 0.66675,0.59266 0.32327,0.29389 0.64737,0.58702 0.96309,0.88901 0.25237,0.24139 0.47254,0.51726 0.74083,0.74083 2.42684,1.84895 3.23024,1.98477 5.11178,0.29632 0.77591,-0.72742 0.11819,-0.22411 1.18534,-1.03717 0.26717,-0.20356 0.54262,-0.39602 0.81491,-0.59267 0.17222,-0.12438 0.35372,-0.23646 0.51859,-0.37042 0.23079,-0.18751 0.44098,-0.39915 0.66675,-0.59267 0.42975,-0.36835 0.34367,-0.22545 0.74084,-0.66675 0.32146,-0.35718 0.43452,-0.5727 0.66675,-1.03717 0.0595,-0.11894 0.0958,-0.24819 0.14817,-0.37042 0.0958,-0.22355 0.206,-0.44093 0.29633,-0.66675 0.058,-0.14501 0.10224,-0.29523 0.14817,-0.4445 0.0529,-0.17183 0.079,-0.35264 0.14817,-0.51859 0.67245,-1.61389 -0.22445,0.96967 0.37041,-0.81492"
         id="path3035"
         inkscape:connector-curvature="0"
         sodipodi:nodetypes="csccccccsssscsccssccscccccc" />
      <path
         inkscape:connector-curvature="0"
         id="path3037"
         d="m 554.1632,813.89754 c 1.74369,1.4946 -0.42668,-0.35556 0.889,0.74084 0.1749,0.14575 0.36474,0.27667 0.51859,0.4445 0.2373,0.25888 0.66843,1.14346 0.74083,1.3335 0.0811,0.21276 0.0954,0.44527 0.14817,0.66675 0.22868,0.96046 0.22232,0.766 0.37042,1.70393 0.031,0.19665 0.0835,0.3938 0.0741,0.59266 -0.0154,0.32444 -0.0901,0.64352 -0.14817,0.96309 -0.14184,0.78016 -0.2461,1.04084 -0.66675,1.85209 -0.14821,0.28584 -0.30467,0.57427 -0.51858,0.81492 -0.52954,0.59573 -1.49287,1.38767 -2.14843,1.92617 -0.39339,0.32314 -0.81006,0.61908 -1.18534,0.96309 -0.2192,0.20093 -0.39264,0.44672 -0.59266,0.66675 -0.29389,0.32327 -0.58702,0.64737 -0.88901,0.96309 -0.24139,0.25237 -0.51726,0.47254 -0.74083,0.74083 -0.27199,0.32639 -0.48592,0.69728 -0.74084,1.03717 -2.26166,2.27731 0.31994,3.73533 1.48169,5.25995 0.20356,0.26717 0.39602,0.54262 0.59267,0.81491 0.12438,0.17222 0.23646,0.35372 0.37042,0.51859 0.18751,0.23079 0.39915,0.44098 0.59267,0.66675 0.36835,0.42975 0.22545,0.34367 0.66675,0.74084 0.35718,0.32146 0.5727,0.43452 1.03717,0.66675 0.11894,0.0595 0.24819,0.0958 0.37042,0.14817 0.22355,0.0958 0.44093,0.206 0.66675,0.29633 0.14501,0.058 0.29523,0.10224 0.4445,0.14817 0.17183,0.0529 0.35264,0.079 0.51859,0.14817 1.61389,0.67245 -0.96967,-0.22445 0.81492,0.37041"
         style="fill:none;stroke:#000000;stroke-width:1px;stroke-linecap:butt;stroke-linejoin:miter;stroke-opacity:1"
         sodipodi:nodetypes="csccccccsssscssccsccscccccc" />
    </g>
  </g>
</svg>
